<mxfile host="app.diagrams.net" modified="2022-01-15T06:07:15.460Z" agent="5.0 (Windows NT 10.0; Win64; x64) AppleWebKit/537.36 (KHTML, like Gecko) Chrome/97.0.4692.71 Safari/537.36 Edg/97.0.1072.55" etag="BbvSZQkTOi51cg7NaFRs" version="16.2.7" type="github">
  <diagram id="kgpKYQtTHZ0yAKxKKP6v" name="Page-1">
    <mxGraphModel dx="1839" dy="548" grid="1" gridSize="10" guides="1" tooltips="1" connect="1" arrows="1" fold="1" page="1" pageScale="1" pageWidth="850" pageHeight="1100" math="1" shadow="0">
      <root>
        <mxCell id="0" />
        <mxCell id="1" parent="0" />
        <mxCell id="yKHqxRb7ImUEPN96YDjU-83" value="" style="group" vertex="1" connectable="0" parent="1">
          <mxGeometry x="-30" y="230" width="800" height="540" as="geometry" />
        </mxCell>
        <mxCell id="yKHqxRb7ImUEPN96YDjU-23" style="edgeStyle=orthogonalEdgeStyle;rounded=0;orthogonalLoop=1;jettySize=auto;html=1;exitX=1;exitY=0.5;exitDx=0;exitDy=0;entryX=0.5;entryY=1;entryDx=0;entryDy=0;" edge="1" parent="yKHqxRb7ImUEPN96YDjU-83" target="yKHqxRb7ImUEPN96YDjU-20">
          <mxGeometry relative="1" as="geometry">
            <mxPoint x="510" y="470" as="sourcePoint" />
          </mxGeometry>
        </mxCell>
        <mxCell id="yKHqxRb7ImUEPN96YDjU-16" style="edgeStyle=orthogonalEdgeStyle;rounded=0;orthogonalLoop=1;jettySize=auto;html=1;exitX=1;exitY=0.5;exitDx=0;exitDy=0;entryX=0;entryY=0.5;entryDx=0;entryDy=0;" edge="1" parent="yKHqxRb7ImUEPN96YDjU-83" target="yKHqxRb7ImUEPN96YDjU-27">
          <mxGeometry relative="1" as="geometry">
            <mxPoint x="330" y="355" as="sourcePoint" />
            <mxPoint x="470" y="355" as="targetPoint" />
          </mxGeometry>
        </mxCell>
        <mxCell id="yKHqxRb7ImUEPN96YDjU-13" style="edgeStyle=orthogonalEdgeStyle;rounded=0;orthogonalLoop=1;jettySize=auto;html=1;exitX=1;exitY=0.5;exitDx=0;exitDy=0;" edge="1" parent="yKHqxRb7ImUEPN96YDjU-83" target="yKHqxRb7ImUEPN96YDjU-11">
          <mxGeometry relative="1" as="geometry">
            <mxPoint x="330" y="415" as="sourcePoint" />
          </mxGeometry>
        </mxCell>
        <mxCell id="yKHqxRb7ImUEPN96YDjU-12" style="edgeStyle=orthogonalEdgeStyle;rounded=0;orthogonalLoop=1;jettySize=auto;html=1;exitX=1;exitY=0.5;exitDx=0;exitDy=0;entryX=0;entryY=0.5;entryDx=0;entryDy=0;" edge="1" parent="yKHqxRb7ImUEPN96YDjU-83" target="yKHqxRb7ImUEPN96YDjU-11">
          <mxGeometry relative="1" as="geometry">
            <mxPoint x="330" y="470" as="sourcePoint" />
          </mxGeometry>
        </mxCell>
        <mxCell id="yKHqxRb7ImUEPN96YDjU-18" style="edgeStyle=orthogonalEdgeStyle;rounded=0;orthogonalLoop=1;jettySize=auto;html=1;exitX=1;exitY=0.5;exitDx=0;exitDy=0;entryX=0;entryY=0.5;entryDx=0;entryDy=0;" edge="1" parent="yKHqxRb7ImUEPN96YDjU-83" source="yKHqxRb7ImUEPN96YDjU-11">
          <mxGeometry relative="1" as="geometry">
            <mxPoint x="470" y="470" as="targetPoint" />
          </mxGeometry>
        </mxCell>
        <mxCell id="yKHqxRb7ImUEPN96YDjU-11" value="" style="shape=lineEllipse;perimeter=ellipsePerimeter;whiteSpace=wrap;html=1;backgroundOutline=1;" vertex="1" parent="yKHqxRb7ImUEPN96YDjU-83">
          <mxGeometry x="390" y="455" width="30" height="30" as="geometry" />
        </mxCell>
        <mxCell id="yKHqxRb7ImUEPN96YDjU-14" value="$$\frac{{\widehat\varphi}_{E5a}}{2}$$" style="text;html=1;align=center;verticalAlign=middle;resizable=0;points=[];autosize=1;strokeColor=none;fillColor=none;" vertex="1" parent="yKHqxRb7ImUEPN96YDjU-83">
          <mxGeometry x="255" y="380" width="210" height="20" as="geometry" />
        </mxCell>
        <mxCell id="yKHqxRb7ImUEPN96YDjU-15" value="$$\frac{{\widehat\varphi}_{E5b}}{2}$$" style="text;html=1;align=center;verticalAlign=middle;resizable=0;points=[];autosize=1;strokeColor=none;fillColor=none;" vertex="1" parent="yKHqxRb7ImUEPN96YDjU-83">
          <mxGeometry x="255" y="440" width="210" height="20" as="geometry" />
        </mxCell>
        <mxCell id="yKHqxRb7ImUEPN96YDjU-17" value="$$\widehat\tau$$" style="text;html=1;align=center;verticalAlign=middle;resizable=0;points=[];autosize=1;strokeColor=none;fillColor=none;" vertex="1" parent="yKHqxRb7ImUEPN96YDjU-83">
          <mxGeometry x="305" y="330" width="110" height="20" as="geometry" />
        </mxCell>
        <mxCell id="yKHqxRb7ImUEPN96YDjU-19" value="$$\widehat\varphi$$" style="text;html=1;align=center;verticalAlign=middle;resizable=0;points=[];autosize=1;strokeColor=none;fillColor=none;" vertex="1" parent="yKHqxRb7ImUEPN96YDjU-83">
          <mxGeometry x="385" y="440" width="120" height="20" as="geometry" />
        </mxCell>
        <mxCell id="yKHqxRb7ImUEPN96YDjU-20" value="" style="shape=lineEllipse;perimeter=ellipsePerimeter;whiteSpace=wrap;html=1;backgroundOutline=1;" vertex="1" parent="yKHqxRb7ImUEPN96YDjU-83">
          <mxGeometry x="550" y="340" width="30" height="30" as="geometry" />
        </mxCell>
        <mxCell id="yKHqxRb7ImUEPN96YDjU-24" value="&lt;span&gt;Code NCO&lt;/span&gt;" style="rounded=0;whiteSpace=wrap;html=1;" vertex="1" parent="yKHqxRb7ImUEPN96YDjU-83">
          <mxGeometry x="230" y="340" width="100" height="30" as="geometry" />
        </mxCell>
        <mxCell id="yKHqxRb7ImUEPN96YDjU-25" value="E5a Carrier NCO" style="rounded=0;whiteSpace=wrap;html=1;" vertex="1" parent="yKHqxRb7ImUEPN96YDjU-83">
          <mxGeometry x="230" y="400" width="100" height="30" as="geometry" />
        </mxCell>
        <mxCell id="yKHqxRb7ImUEPN96YDjU-26" value="E5b Carrier NCO" style="rounded=0;whiteSpace=wrap;html=1;" vertex="1" parent="yKHqxRb7ImUEPN96YDjU-83">
          <mxGeometry x="230" y="455" width="100" height="30" as="geometry" />
        </mxCell>
        <mxCell id="yKHqxRb7ImUEPN96YDjU-27" value="$$\frac{1}{\omega_{sc}}$$" style="rounded=0;whiteSpace=wrap;html=1;" vertex="1" parent="yKHqxRb7ImUEPN96YDjU-83">
          <mxGeometry x="470" y="325" width="40" height="60" as="geometry" />
        </mxCell>
        <mxCell id="yKHqxRb7ImUEPN96YDjU-22" style="edgeStyle=orthogonalEdgeStyle;rounded=0;orthogonalLoop=1;jettySize=auto;html=1;entryX=0;entryY=0.5;entryDx=0;entryDy=0;exitX=1;exitY=0.5;exitDx=0;exitDy=0;" edge="1" parent="yKHqxRb7ImUEPN96YDjU-83" source="yKHqxRb7ImUEPN96YDjU-27" target="yKHqxRb7ImUEPN96YDjU-20">
          <mxGeometry relative="1" as="geometry">
            <mxPoint x="510" y="355" as="sourcePoint" />
          </mxGeometry>
        </mxCell>
        <mxCell id="yKHqxRb7ImUEPN96YDjU-29" value="$$\frac{1}{\omega_{code}}$$" style="rounded=0;whiteSpace=wrap;html=1;" vertex="1" parent="yKHqxRb7ImUEPN96YDjU-83">
          <mxGeometry x="470" y="440" width="40" height="60" as="geometry" />
        </mxCell>
        <mxCell id="yKHqxRb7ImUEPN96YDjU-59" style="edgeStyle=orthogonalEdgeStyle;rounded=0;orthogonalLoop=1;jettySize=auto;html=1;exitX=1;exitY=0.5;exitDx=0;exitDy=0;entryX=0;entryY=0.5;entryDx=0;entryDy=0;" edge="1" parent="yKHqxRb7ImUEPN96YDjU-83" source="yKHqxRb7ImUEPN96YDjU-30" target="yKHqxRb7ImUEPN96YDjU-24">
          <mxGeometry relative="1" as="geometry">
            <Array as="points">
              <mxPoint x="780" y="195" />
              <mxPoint x="780" y="520" />
              <mxPoint x="210" y="520" />
              <mxPoint x="210" y="355" />
            </Array>
          </mxGeometry>
        </mxCell>
        <mxCell id="yKHqxRb7ImUEPN96YDjU-30" value="SCAID" style="rounded=0;whiteSpace=wrap;html=1;" vertex="1" parent="yKHqxRb7ImUEPN96YDjU-83">
          <mxGeometry x="635" y="140" width="70" height="110" as="geometry" />
        </mxCell>
        <mxCell id="yKHqxRb7ImUEPN96YDjU-35" style="edgeStyle=orthogonalEdgeStyle;rounded=0;orthogonalLoop=1;jettySize=auto;html=1;entryX=0.5;entryY=1;entryDx=0;entryDy=0;" edge="1" parent="yKHqxRb7ImUEPN96YDjU-83" source="yKHqxRb7ImUEPN96YDjU-31" target="yKHqxRb7ImUEPN96YDjU-30">
          <mxGeometry relative="1" as="geometry" />
        </mxCell>
        <mxCell id="yKHqxRb7ImUEPN96YDjU-31" value="2rd filter" style="rounded=0;whiteSpace=wrap;html=1;" vertex="1" parent="yKHqxRb7ImUEPN96YDjU-83">
          <mxGeometry x="620" y="340" width="100" height="30" as="geometry" />
        </mxCell>
        <mxCell id="yKHqxRb7ImUEPN96YDjU-32" style="edgeStyle=orthogonalEdgeStyle;rounded=0;orthogonalLoop=1;jettySize=auto;html=1;exitX=1;exitY=0.5;exitDx=0;exitDy=0;entryX=0;entryY=0.5;entryDx=0;entryDy=0;" edge="1" parent="yKHqxRb7ImUEPN96YDjU-83" source="yKHqxRb7ImUEPN96YDjU-20" target="yKHqxRb7ImUEPN96YDjU-31">
          <mxGeometry relative="1" as="geometry" />
        </mxCell>
        <mxCell id="yKHqxRb7ImUEPN96YDjU-34" value="$${\widehat\varphi}_{fix}$$" style="text;html=1;align=center;verticalAlign=middle;resizable=0;points=[];autosize=1;strokeColor=none;fillColor=none;" vertex="1" parent="yKHqxRb7ImUEPN96YDjU-83">
          <mxGeometry x="520" y="330" width="160" height="20" as="geometry" />
        </mxCell>
        <mxCell id="yKHqxRb7ImUEPN96YDjU-36" value="&lt;span&gt;E5a Code Generator&lt;/span&gt;" style="rounded=0;whiteSpace=wrap;html=1;" vertex="1" parent="yKHqxRb7ImUEPN96YDjU-83">
          <mxGeometry x="200" y="260" width="70" height="40" as="geometry" />
        </mxCell>
        <mxCell id="yKHqxRb7ImUEPN96YDjU-37" style="edgeStyle=orthogonalEdgeStyle;rounded=0;orthogonalLoop=1;jettySize=auto;html=1;exitX=0.5;exitY=0;exitDx=0;exitDy=0;entryX=0.5;entryY=1;entryDx=0;entryDy=0;" edge="1" parent="yKHqxRb7ImUEPN96YDjU-83" source="yKHqxRb7ImUEPN96YDjU-24" target="yKHqxRb7ImUEPN96YDjU-36">
          <mxGeometry relative="1" as="geometry" />
        </mxCell>
        <mxCell id="yKHqxRb7ImUEPN96YDjU-38" value="" style="endArrow=classic;html=1;rounded=0;startArrow=none;" edge="1" parent="yKHqxRb7ImUEPN96YDjU-83" source="yKHqxRb7ImUEPN96YDjU-47">
          <mxGeometry width="50" height="50" relative="1" as="geometry">
            <mxPoint y="164.89999999999998" as="sourcePoint" />
            <mxPoint x="55.75" y="164.89999999999998" as="targetPoint" />
            <Array as="points">
              <mxPoint y="164.89999999999998" />
            </Array>
          </mxGeometry>
        </mxCell>
        <mxCell id="yKHqxRb7ImUEPN96YDjU-39" value="" style="shape=sumEllipse;perimeter=ellipsePerimeter;whiteSpace=wrap;html=1;backgroundOutline=1;" vertex="1" parent="yKHqxRb7ImUEPN96YDjU-83">
          <mxGeometry x="55.75" y="150" width="30" height="30" as="geometry" />
        </mxCell>
        <mxCell id="yKHqxRb7ImUEPN96YDjU-44" style="edgeStyle=orthogonalEdgeStyle;rounded=0;orthogonalLoop=1;jettySize=auto;html=1;entryX=0.5;entryY=1;entryDx=0;entryDy=0;exitX=0.5;exitY=0;exitDx=0;exitDy=0;" edge="1" parent="yKHqxRb7ImUEPN96YDjU-83" source="yKHqxRb7ImUEPN96YDjU-25" target="yKHqxRb7ImUEPN96YDjU-39">
          <mxGeometry relative="1" as="geometry">
            <Array as="points">
              <mxPoint x="280" y="380" />
              <mxPoint x="71" y="380" />
            </Array>
          </mxGeometry>
        </mxCell>
        <mxCell id="yKHqxRb7ImUEPN96YDjU-40" value="&lt;b&gt;IF&lt;/b&gt;" style="text;html=1;align=center;verticalAlign=middle;resizable=0;points=[];autosize=1;strokeColor=none;fillColor=none;" vertex="1" parent="yKHqxRb7ImUEPN96YDjU-83">
          <mxGeometry x="5.75" y="140" width="30" height="20" as="geometry" />
        </mxCell>
        <mxCell id="yKHqxRb7ImUEPN96YDjU-41" value="$${\widetilde\varphi}_{fix}$$" style="text;html=1;align=center;verticalAlign=middle;resizable=0;points=[];autosize=1;strokeColor=none;fillColor=none;" vertex="1" parent="yKHqxRb7ImUEPN96YDjU-83">
          <mxGeometry x="610" y="310" width="160" height="20" as="geometry" />
        </mxCell>
        <mxCell id="yKHqxRb7ImUEPN96YDjU-42" value="&lt;span&gt;E5b Code Generator&lt;/span&gt;" style="rounded=0;whiteSpace=wrap;html=1;" vertex="1" parent="yKHqxRb7ImUEPN96YDjU-83">
          <mxGeometry x="290" y="260" width="70" height="40" as="geometry" />
        </mxCell>
        <mxCell id="yKHqxRb7ImUEPN96YDjU-43" style="edgeStyle=orthogonalEdgeStyle;rounded=0;orthogonalLoop=1;jettySize=auto;html=1;exitX=0.5;exitY=0;exitDx=0;exitDy=0;entryX=0.5;entryY=1;entryDx=0;entryDy=0;" edge="1" parent="yKHqxRb7ImUEPN96YDjU-83" source="yKHqxRb7ImUEPN96YDjU-24" target="yKHqxRb7ImUEPN96YDjU-42">
          <mxGeometry relative="1" as="geometry" />
        </mxCell>
        <mxCell id="yKHqxRb7ImUEPN96YDjU-45" value="" style="shape=sumEllipse;perimeter=ellipsePerimeter;whiteSpace=wrap;html=1;backgroundOutline=1;" vertex="1" parent="yKHqxRb7ImUEPN96YDjU-83">
          <mxGeometry x="100" y="200" width="30" height="30" as="geometry" />
        </mxCell>
        <mxCell id="yKHqxRb7ImUEPN96YDjU-50" style="edgeStyle=orthogonalEdgeStyle;rounded=0;orthogonalLoop=1;jettySize=auto;html=1;exitX=0.5;exitY=0;exitDx=0;exitDy=0;entryX=0.5;entryY=1;entryDx=0;entryDy=0;" edge="1" parent="yKHqxRb7ImUEPN96YDjU-83" source="yKHqxRb7ImUEPN96YDjU-26" target="yKHqxRb7ImUEPN96YDjU-45">
          <mxGeometry relative="1" as="geometry">
            <Array as="points">
              <mxPoint x="280" y="440" />
              <mxPoint x="115" y="440" />
            </Array>
          </mxGeometry>
        </mxCell>
        <mxCell id="yKHqxRb7ImUEPN96YDjU-49" style="edgeStyle=orthogonalEdgeStyle;rounded=0;orthogonalLoop=1;jettySize=auto;html=1;entryX=0;entryY=0.5;entryDx=0;entryDy=0;" edge="1" parent="yKHqxRb7ImUEPN96YDjU-83" source="yKHqxRb7ImUEPN96YDjU-47" target="yKHqxRb7ImUEPN96YDjU-45">
          <mxGeometry relative="1" as="geometry">
            <Array as="points">
              <mxPoint x="26" y="215" />
            </Array>
          </mxGeometry>
        </mxCell>
        <mxCell id="yKHqxRb7ImUEPN96YDjU-47" value="" style="shape=waypoint;sketch=0;size=6;pointerEvents=1;points=[];fillColor=none;resizable=0;rotatable=0;perimeter=centerPerimeter;snapToPoint=1;" vertex="1" parent="yKHqxRb7ImUEPN96YDjU-83">
          <mxGeometry x="5.75" y="145" width="40" height="40" as="geometry" />
        </mxCell>
        <mxCell id="yKHqxRb7ImUEPN96YDjU-48" value="" style="endArrow=none;html=1;rounded=0;" edge="1" parent="yKHqxRb7ImUEPN96YDjU-83" target="yKHqxRb7ImUEPN96YDjU-47">
          <mxGeometry width="50" height="50" relative="1" as="geometry">
            <mxPoint y="164.89999999999998" as="sourcePoint" />
            <mxPoint x="55.75000000000006" y="164.89999999999998" as="targetPoint" />
            <Array as="points" />
          </mxGeometry>
        </mxCell>
        <mxCell id="yKHqxRb7ImUEPN96YDjU-51" value="" style="shape=sumEllipse;perimeter=ellipsePerimeter;whiteSpace=wrap;html=1;backgroundOutline=1;" vertex="1" parent="yKHqxRb7ImUEPN96YDjU-83">
          <mxGeometry x="220" y="150" width="30" height="30" as="geometry" />
        </mxCell>
        <mxCell id="yKHqxRb7ImUEPN96YDjU-53" style="edgeStyle=orthogonalEdgeStyle;rounded=0;orthogonalLoop=1;jettySize=auto;html=1;exitX=0.5;exitY=0;exitDx=0;exitDy=0;entryX=0.5;entryY=1;entryDx=0;entryDy=0;" edge="1" parent="yKHqxRb7ImUEPN96YDjU-83" source="yKHqxRb7ImUEPN96YDjU-36" target="yKHqxRb7ImUEPN96YDjU-51">
          <mxGeometry relative="1" as="geometry" />
        </mxCell>
        <mxCell id="yKHqxRb7ImUEPN96YDjU-52" style="edgeStyle=orthogonalEdgeStyle;rounded=0;orthogonalLoop=1;jettySize=auto;html=1;exitX=1;exitY=0.5;exitDx=0;exitDy=0;entryX=0;entryY=0.5;entryDx=0;entryDy=0;" edge="1" parent="yKHqxRb7ImUEPN96YDjU-83" source="yKHqxRb7ImUEPN96YDjU-39" target="yKHqxRb7ImUEPN96YDjU-51">
          <mxGeometry relative="1" as="geometry" />
        </mxCell>
        <mxCell id="yKHqxRb7ImUEPN96YDjU-54" value="" style="shape=sumEllipse;perimeter=ellipsePerimeter;whiteSpace=wrap;html=1;backgroundOutline=1;" vertex="1" parent="yKHqxRb7ImUEPN96YDjU-83">
          <mxGeometry x="310" y="200" width="30" height="30" as="geometry" />
        </mxCell>
        <mxCell id="yKHqxRb7ImUEPN96YDjU-56" style="edgeStyle=orthogonalEdgeStyle;rounded=0;orthogonalLoop=1;jettySize=auto;html=1;exitX=0.5;exitY=0;exitDx=0;exitDy=0;entryX=0.5;entryY=1;entryDx=0;entryDy=0;" edge="1" parent="yKHqxRb7ImUEPN96YDjU-83" source="yKHqxRb7ImUEPN96YDjU-42" target="yKHqxRb7ImUEPN96YDjU-54">
          <mxGeometry relative="1" as="geometry" />
        </mxCell>
        <mxCell id="yKHqxRb7ImUEPN96YDjU-55" style="edgeStyle=orthogonalEdgeStyle;rounded=0;orthogonalLoop=1;jettySize=auto;html=1;exitX=1;exitY=0.5;exitDx=0;exitDy=0;entryX=0;entryY=0.5;entryDx=0;entryDy=0;" edge="1" parent="yKHqxRb7ImUEPN96YDjU-83" source="yKHqxRb7ImUEPN96YDjU-45" target="yKHqxRb7ImUEPN96YDjU-54">
          <mxGeometry relative="1" as="geometry" />
        </mxCell>
        <mxCell id="yKHqxRb7ImUEPN96YDjU-63" style="edgeStyle=orthogonalEdgeStyle;rounded=0;orthogonalLoop=1;jettySize=auto;html=1;exitDx=0;exitDy=0;startArrow=none;" edge="1" parent="yKHqxRb7ImUEPN96YDjU-83" source="yKHqxRb7ImUEPN96YDjU-72" target="yKHqxRb7ImUEPN96YDjU-30">
          <mxGeometry relative="1" as="geometry">
            <Array as="points">
              <mxPoint x="590" y="165" />
              <mxPoint x="590" y="165" />
            </Array>
          </mxGeometry>
        </mxCell>
        <mxCell id="yKHqxRb7ImUEPN96YDjU-61" value="&lt;span&gt;Integrate&lt;br&gt;and Dump&lt;br&gt;&lt;/span&gt;" style="rounded=0;whiteSpace=wrap;html=1;" vertex="1" parent="yKHqxRb7ImUEPN96YDjU-83">
          <mxGeometry x="410" y="145" width="70" height="40" as="geometry" />
        </mxCell>
        <mxCell id="yKHqxRb7ImUEPN96YDjU-57" style="edgeStyle=orthogonalEdgeStyle;rounded=0;orthogonalLoop=1;jettySize=auto;html=1;exitX=1;exitY=0.5;exitDx=0;exitDy=0;entryX=0;entryY=0.5;entryDx=0;entryDy=0;" edge="1" parent="yKHqxRb7ImUEPN96YDjU-83" source="yKHqxRb7ImUEPN96YDjU-51" target="yKHqxRb7ImUEPN96YDjU-61">
          <mxGeometry relative="1" as="geometry">
            <mxPoint x="400" y="165" as="targetPoint" />
          </mxGeometry>
        </mxCell>
        <mxCell id="yKHqxRb7ImUEPN96YDjU-65" style="edgeStyle=orthogonalEdgeStyle;rounded=0;orthogonalLoop=1;jettySize=auto;html=1;exitX=1;exitY=0.5;exitDx=0;exitDy=0;" edge="1" parent="yKHqxRb7ImUEPN96YDjU-83" source="yKHqxRb7ImUEPN96YDjU-62" target="yKHqxRb7ImUEPN96YDjU-30">
          <mxGeometry relative="1" as="geometry">
            <mxPoint x="610" y="215" as="targetPoint" />
            <Array as="points">
              <mxPoint x="600" y="215" />
              <mxPoint x="600" y="215" />
            </Array>
          </mxGeometry>
        </mxCell>
        <mxCell id="yKHqxRb7ImUEPN96YDjU-62" value="&lt;span&gt;Integrate&lt;br&gt;and Dump&lt;br&gt;&lt;/span&gt;" style="rounded=0;whiteSpace=wrap;html=1;" vertex="1" parent="yKHqxRb7ImUEPN96YDjU-83">
          <mxGeometry x="410" y="195" width="70" height="40" as="geometry" />
        </mxCell>
        <mxCell id="yKHqxRb7ImUEPN96YDjU-66" value="$$R_{QPSK-a}(\tau)$$" style="text;html=1;align=center;verticalAlign=middle;resizable=0;points=[];autosize=1;strokeColor=none;fillColor=none;" vertex="1" parent="yKHqxRb7ImUEPN96YDjU-83">
          <mxGeometry x="460" y="145" width="140" height="20" as="geometry" />
        </mxCell>
        <mxCell id="yKHqxRb7ImUEPN96YDjU-67" value="$$R_{QPSK-b}(\tau)$$" style="text;html=1;align=center;verticalAlign=middle;resizable=0;points=[];autosize=1;strokeColor=none;fillColor=none;" vertex="1" parent="yKHqxRb7ImUEPN96YDjU-83">
          <mxGeometry x="460" y="195" width="140" height="20" as="geometry" />
        </mxCell>
        <mxCell id="yKHqxRb7ImUEPN96YDjU-68" value="$${\widehat{f}}_{code}$$" style="text;html=1;align=center;verticalAlign=middle;resizable=0;points=[];autosize=1;strokeColor=none;fillColor=none;" vertex="1" parent="yKHqxRb7ImUEPN96YDjU-83">
          <mxGeometry x="650" y="165" width="150" height="20" as="geometry" />
        </mxCell>
        <mxCell id="yKHqxRb7ImUEPN96YDjU-58" style="edgeStyle=orthogonalEdgeStyle;rounded=0;orthogonalLoop=1;jettySize=auto;html=1;entryX=0;entryY=0.5;entryDx=0;entryDy=0;" edge="1" parent="yKHqxRb7ImUEPN96YDjU-83" source="yKHqxRb7ImUEPN96YDjU-54" target="yKHqxRb7ImUEPN96YDjU-62">
          <mxGeometry relative="1" as="geometry">
            <mxPoint x="400" y="215" as="targetPoint" />
          </mxGeometry>
        </mxCell>
        <mxCell id="yKHqxRb7ImUEPN96YDjU-69" style="edgeStyle=orthogonalEdgeStyle;rounded=0;orthogonalLoop=1;jettySize=auto;html=1;exitX=0.5;exitY=1;exitDx=0;exitDy=0;" edge="1" parent="yKHqxRb7ImUEPN96YDjU-83" source="yKHqxRb7ImUEPN96YDjU-30" target="yKHqxRb7ImUEPN96YDjU-30">
          <mxGeometry relative="1" as="geometry" />
        </mxCell>
        <mxCell id="yKHqxRb7ImUEPN96YDjU-79" style="edgeStyle=orthogonalEdgeStyle;rounded=0;orthogonalLoop=1;jettySize=auto;html=1;exitX=1;exitY=0.25;exitDx=0;exitDy=0;entryX=0;entryY=0.5;entryDx=0;entryDy=0;" edge="1" parent="yKHqxRb7ImUEPN96YDjU-83" source="yKHqxRb7ImUEPN96YDjU-70" target="yKHqxRb7ImUEPN96YDjU-25">
          <mxGeometry relative="1" as="geometry">
            <Array as="points">
              <mxPoint x="790" y="28" />
              <mxPoint x="790" y="530" />
              <mxPoint x="190" y="530" />
              <mxPoint x="190" y="415" />
            </Array>
          </mxGeometry>
        </mxCell>
        <mxCell id="yKHqxRb7ImUEPN96YDjU-80" style="edgeStyle=orthogonalEdgeStyle;rounded=0;orthogonalLoop=1;jettySize=auto;html=1;exitX=1;exitY=0.75;exitDx=0;exitDy=0;entryX=0;entryY=0.5;entryDx=0;entryDy=0;" edge="1" parent="yKHqxRb7ImUEPN96YDjU-83" source="yKHqxRb7ImUEPN96YDjU-70" target="yKHqxRb7ImUEPN96YDjU-26">
          <mxGeometry relative="1" as="geometry">
            <Array as="points">
              <mxPoint x="800" y="83" />
              <mxPoint x="800" y="540" />
              <mxPoint x="200" y="540" />
              <mxPoint x="200" y="470" />
            </Array>
          </mxGeometry>
        </mxCell>
        <mxCell id="yKHqxRb7ImUEPN96YDjU-70" value="DBT" style="rounded=0;whiteSpace=wrap;html=1;" vertex="1" parent="yKHqxRb7ImUEPN96YDjU-83">
          <mxGeometry x="635" width="70" height="110" as="geometry" />
        </mxCell>
        <mxCell id="yKHqxRb7ImUEPN96YDjU-76" style="edgeStyle=orthogonalEdgeStyle;rounded=0;orthogonalLoop=1;jettySize=auto;html=1;entryX=0;entryY=0.25;entryDx=0;entryDy=0;" edge="1" parent="yKHqxRb7ImUEPN96YDjU-83" source="yKHqxRb7ImUEPN96YDjU-72" target="yKHqxRb7ImUEPN96YDjU-70">
          <mxGeometry relative="1" as="geometry">
            <Array as="points">
              <mxPoint x="570" y="28" />
            </Array>
          </mxGeometry>
        </mxCell>
        <mxCell id="yKHqxRb7ImUEPN96YDjU-72" value="" style="shape=waypoint;sketch=0;size=6;pointerEvents=1;points=[];fillColor=none;resizable=0;rotatable=0;perimeter=centerPerimeter;snapToPoint=1;" vertex="1" parent="yKHqxRb7ImUEPN96YDjU-83">
          <mxGeometry x="550" y="145" width="40" height="40" as="geometry" />
        </mxCell>
        <mxCell id="yKHqxRb7ImUEPN96YDjU-73" value="" style="edgeStyle=orthogonalEdgeStyle;rounded=0;orthogonalLoop=1;jettySize=auto;html=1;exitX=1;exitY=0.5;exitDx=0;exitDy=0;endArrow=none;" edge="1" parent="yKHqxRb7ImUEPN96YDjU-83" source="yKHqxRb7ImUEPN96YDjU-61" target="yKHqxRb7ImUEPN96YDjU-72">
          <mxGeometry relative="1" as="geometry">
            <mxPoint x="480" y="165" as="sourcePoint" />
            <mxPoint x="635" y="165" as="targetPoint" />
            <Array as="points" />
          </mxGeometry>
        </mxCell>
        <mxCell id="yKHqxRb7ImUEPN96YDjU-78" style="edgeStyle=orthogonalEdgeStyle;rounded=0;orthogonalLoop=1;jettySize=auto;html=1;entryX=0;entryY=0.75;entryDx=0;entryDy=0;" edge="1" parent="yKHqxRb7ImUEPN96YDjU-83" source="yKHqxRb7ImUEPN96YDjU-75" target="yKHqxRb7ImUEPN96YDjU-70">
          <mxGeometry relative="1" as="geometry">
            <Array as="points">
              <mxPoint x="610" y="83" />
            </Array>
          </mxGeometry>
        </mxCell>
        <mxCell id="yKHqxRb7ImUEPN96YDjU-75" value="" style="shape=waypoint;sketch=0;size=6;pointerEvents=1;points=[];fillColor=none;resizable=0;rotatable=0;perimeter=centerPerimeter;snapToPoint=1;" vertex="1" parent="yKHqxRb7ImUEPN96YDjU-83">
          <mxGeometry x="590" y="195" width="40" height="40" as="geometry" />
        </mxCell>
        <mxCell id="yKHqxRb7ImUEPN96YDjU-81" value="$${\widehat{f}}_{E5a}$$" style="text;html=1;align=center;verticalAlign=middle;resizable=0;points=[];autosize=1;strokeColor=none;fillColor=none;" vertex="1" parent="yKHqxRb7ImUEPN96YDjU-83">
          <mxGeometry x="660" width="140" height="20" as="geometry" />
        </mxCell>
        <mxCell id="yKHqxRb7ImUEPN96YDjU-82" value="$${\widehat{f}}_{E5b}$$" style="text;html=1;align=center;verticalAlign=middle;resizable=0;points=[];autosize=1;strokeColor=none;fillColor=none;" vertex="1" parent="yKHqxRb7ImUEPN96YDjU-83">
          <mxGeometry x="660" y="50" width="140" height="20" as="geometry" />
        </mxCell>
      </root>
    </mxGraphModel>
  </diagram>
</mxfile>
